<?xml version="1.0" encoding="UTF-8"?>
<svg id="Layer_2" xmlns="http://www.w3.org/2000/svg" viewBox="0 0 162.48 597.1">
  <defs>
    <style>
      .cls-1 {
        fill: #0340ff;
      }

      .cls-2 {
        fill: #0657ff;
      }
    </style>
  </defs>
  <g id="Layer_1-2" data-name="Layer_1">
    <g>
      <path class="cls-1" d="M162.03,499.21c-2.73-2.05-4.77-4.4-6.14-7.05-1.9-3.7-4.23-9.15-7-16.35-1.1-2.86-2.29-5.1-3.56-6.72-4.55-5.8-9.5-12.39-14.83-19.77-1.08-1.5-4.6-5.36-10.57-11.58-2.5-2.61-5.89-5.46-10.18-8.53-14.81-10.63-24.22-17.52-28.25-20.67-7.72-6.05-14.84-11.93-21.36-17.65-1.13-.99-2.48-2.38-4.05-4.16-7.71-8.78-14.41-17.08-20.1-24.89-.6-.83-3.06-3.37-7.39-7.62-2.2-2.16-4.53-3.33-6.98-3.5-1.33-3.81-2.66-7.68-3.99-11.6-1.63-4.78-2.65-8.72-3.05-11.82-.89-6.83-1.14-14.04-.73-21.65.31-5.68,1.49-11.42,3.54-17.21,2.33-6.56,4.59-12.03,6.8-16.41.36-.72.81-1.38,1.34-1.98,1.92-2.15,3.51-4.35,4.76-6.59.38-.68.84-1.3,1.37-1.85,5.41-5.59,11-10.61,16.75-15.08,3.72-2.88,8.07-5.16,13.06-6.85,5.45-1.84,10.37-3.47,16.16-4.04,3.6-.35,8.24-1.81,12.34-1.26,7.24.96,18.77,2.5,25.92,5.84,5.91,2.76,11.4,5.88,16.46,9.36,2.37,1.64,4.3,3.38,5.77,5.21,2.17,2.69,4.92,4.66,7.21,7.94,3.07,4.39,4.8,6.91,5.17,7.58,4.41,7.85,7.71,16.26,7.95,25.19.12,4.12,1.08,8.37,1.17,13.35.66,35.02.74,61.01.86,105.48,0,6.4.57,13.76.72,20.68.44,21.41.72,42.81.83,64.2ZM107.64,256.44c-6.85.22-9.94,9.36-8.1,15.21,2.98,10.75,14.58,9.55,16.57-1.03,1.31-5.7-1.86-13.98-8.3-14.18h-.17ZM71.23,282.32c6.29,5.57,17.67,4.35,20.84-4,4.57-11.43-4.8-23.78-17.06-19.69-10.09,3.21-11.81,17.01-3.93,23.55l.15.13ZM127.61,264.12c-6.47-.26-9.99,7.92-9.02,13.6.61,4.95,5.88,7.96,9.82,6.91,7.93-2.29,8.56-19.85-.63-20.49h-.17ZM30.58,277.28c-11.83,15.76,6.8,35.02,24.03,29.55,11.77-3.07,18.63-17.19,11.59-27.69-7.7-12.5-26.5-13.37-35.5-2l-.12.15ZM147.4,283.09c-2.96-7.01-11.9-5.22-12.28,2.24-.4,6.49,8.11,10.77,11.79,4.32,1.12-1.97,1.33-4.27.56-6.37l-.07-.19Z"/>
      <path class="cls-2" d="M161.19,499.56c1.19,2.81,1.22,6,1.27,9.03,0,7.31.26,14.43-.8,21.6-1.38,9.52-5.06,18.07-9.36,26.53-2.21,4.45-4.67,8.81-7.73,12.66-9.6,12.13-23.1,22.24-38.38,25.65-10.92,2.39-22.13,2.36-33.36,1.66-6.9-.67-13.72-2.47-20.12-5.02-15.65-6.84-27.35-21.61-34.11-37.04-4.19-9.27-6.02-19.07-5.73-29.16-.11-11.45,1.42-23.23,6.16-33.57,5.97-13.16,14.1-25.19,22.94-36.64,6.72-8.56,13.96-16.68,22.18-23.8,3.79-3.58,11.96-7.28,12.77-12.68.05-2.62-2.61-4.78-4.47-6.44-1.83-1.58-3.83-3.13-5.73-4.65-10.05-8.22-19.65-17.56-28.27-27.28-6.18-8.09-12.17-16.39-15.52-26.07-.63-1.55-1.03-4.82,1.4-4.07,3.8,1.51,6.64,5.15,9.3,7.88,4.62,5.4,8.49,11.02,13.02,16.51,18.52,23.92,45.21,39.42,68.68,58.06,12.02,10.45,21.02,23.84,30.39,36.67,3.8,6.04,5.75,13.46,8.99,19.85,1.53,3.68,4.72,6.75,6.42,10.15l.07.17Z"/>
      <path class="cls-2" d="M58.76.13c1.84-.64,4.66,1.2,6.23,2.76,2.31,2.16,4.44,4.63,6.68,6.95,5.27,5.26,10.71,11.21,15.31,17.27,11.57,14.75,20.03,31.6,25.53,49.5,4.18,16.71,5.12,37.04,4.18,52.63-1.21,14.84-6.45,29.91-17.55,40.38-6.11,5.35-12.84,10.15-20.44,12.98-7.59,2.69-15.72,5.16-23.72,5.07-8.01-.24-16.19-.99-23.4-4.82-8.53-4.43-15.44-10.87-20.9-18.33-5.41-8.52-9.26-18.81-10.47-28.99-2.62-37.68,21.46-55.97,45.29-79.8,4.76-4.78,9.7-9.67,12.43-16.1,3.61-8.58,2.9-18.07.47-26.92-.79-3.75-3.65-10.35.26-12.55l.11-.04Z"/>
    </g>
  </g>
</svg>